<?xml version="1.0" encoding="UTF-8" standalone="no"?>
<!-- Created with Inkscape (http://www.inkscape.org/) -->

<svg
   xmlns:osb="http://www.openswatchbook.org/uri/2009/osb"
   xmlns:dc="http://purl.org/dc/elements/1.1/"
   xmlns:cc="http://creativecommons.org/ns#"
   xmlns:rdf="http://www.w3.org/1999/02/22-rdf-syntax-ns#"
   xmlns:svg="http://www.w3.org/2000/svg"
   xmlns="http://www.w3.org/2000/svg"
   xmlns:xlink="http://www.w3.org/1999/xlink"
   xmlns:sodipodi="http://sodipodi.sourceforge.net/DTD/sodipodi-0.dtd"
   xmlns:inkscape="http://www.inkscape.org/namespaces/inkscape"
   width="744.09448819"
   height="1052.3622047"
   id="svg2"
   version="1.1"
   inkscape:version="0.48.4 r9939"
   sodipodi:docname="tunecrumble.svg">
  <defs
     id="defs4">
    <linearGradient
       id="linearGradient5255">
      <stop
         id="stop5265"
         offset="0"
         style="stop-color:#ef8989;stop-opacity:1;" />
      <stop
         style="stop-color:#d52626;stop-opacity:1;"
         offset="1"
         id="stop5259" />
    </linearGradient>
    <linearGradient
       id="linearGradient3763"
       osb:paint="gradient">
      <stop
         style="stop-color:#ef8989;stop-opacity:1;"
         offset="0"
         id="stop3765" />
      <stop
         id="stop3771"
         offset="0.52576721"
         style="stop-color:#d52626;stop-opacity:1;" />
      <stop
         style="stop-color:#d52626;stop-opacity:1;"
         offset="1"
         id="stop3767" />
    </linearGradient>
    <radialGradient
       inkscape:collect="always"
       xlink:href="#linearGradient3763"
       id="radialGradient5235"
       cx="306.88962"
       cy="399.65994"
       fx="306.88962"
       fy="399.65994"
       r="190.42018"
       gradientTransform="matrix(-1.5352272,1.3126224,-1.5825088,-1.9447288,1387.6671,813.56933)"
       gradientUnits="userSpaceOnUse" />
    <radialGradient
       inkscape:collect="always"
       xlink:href="#linearGradient5255"
       id="radialGradient5263"
       cx="338.50681"
       cy="82.3078"
       fx="338.50681"
       fy="82.3078"
       r="67.552064"
       gradientTransform="matrix(0.89669894,-0.49797983,0.27968076,0.50361366,11.09047,231.62224)"
       gradientUnits="userSpaceOnUse" />
  </defs>
  <sodipodi:namedview
     id="base"
     pagecolor="#ffffff"
     bordercolor="#666666"
     borderopacity="1.0"
     inkscape:pageopacity="0.0"
     inkscape:pageshadow="2"
     inkscape:zoom="0.98994949"
     inkscape:cx="90.119305"
     inkscape:cy="682.10232"
     inkscape:document-units="px"
     inkscape:current-layer="layer1"
     showgrid="false"
     inkscape:window-width="1920"
     inkscape:window-height="1017"
     inkscape:window-x="-8"
     inkscape:window-y="64"
     inkscape:window-maximized="1" />
  <metadata
     id="metadata7">
    <rdf:RDF>
      <cc:Work
         rdf:about="">
        <dc:format>image/svg+xml</dc:format>
        <dc:type
           rdf:resource="http://purl.org/dc/dcmitype/StillImage" />
      </cc:Work>
    </rdf:RDF>
  </metadata>
  <g
     inkscape:label="Layer 1"
     inkscape:groupmode="layer"
     id="layer1">
    <path
       sodipodi:type="arc"
       style="fill:url(#radialGradient5235);fill-opacity:1;stroke:none"
       id="path2985"
       sodipodi:cx="367.69553"
       sodipodi:cy="558.39758"
       sodipodi:rx="189.90868"
       sodipodi:ry="176.7767"
       d="m 557.6042,558.39758 a 189.90868,176.7767 0 1 1 -379.81735,0 189.90868,176.7767 0 1 1 379.81735,0 z"
       transform="matrix(0.66901384,0,0,0.53937046,-22.583586,271.50014)" />
    <rect
       style="fill:#d52626;fill-opacity:1;stroke:none"
       id="rect5239"
       width="30"
       height="474.28571"
       x="320.46133"
       y="96.647903" />
    <path
       style="fill:url(#radialGradient5263);fill-opacity:1;stroke:none"
       id="path5251"
       d="m 319.79533,96.43905 c 3.86681,-2.038544 23.35931,-0.538937 27.6661,-1.223063 5.08187,-0.42163 10.16574,-0.51622 15.24871,-0.95301 6.60302,-0.656583 13.1847,-1.459458 19.80925,-1.911349 5.41144,-0.310489 10.83189,-0.427 16.25114,-0.489269 3.78547,-0.321791 6.34265,1.943588 7.99504,5.106254 3.09693,9.970057 -15.5443,14.352627 -19.85147,16.867847 -3.16006,0.60968 -6.39845,0.47057 -9.59919,0.4668 -5.12649,-0.0258 -10.25294,-0.0344 -15.37948,-0.0231 -1.43738,0.20651 -1.95438,0.1214 -3.17664,0.83756 -0.29818,0.17472 -1.08488,0.84929 -0.78532,0.67693 32.54981,-18.728868 13.92451,-12.50105 17.87291,-10.2469 2.78457,1.93302 5.69138,3.66969 8.67476,5.28711 5.23241,2.17594 11.0747,2.17732 16.65403,2.41407 7.30889,0.37256 14.64046,-0.10359 21.94129,0.35704 16.12368,-0.41825 1.51809,14.58798 -12.82453,14.60279 -4.85461,0.2814 -9.71937,0.30022 -14.58047,0.34649 -1.39912,0.18062 -2.36506,0.15502 -3.61097,0.82779 -0.40568,0.21907 -1.48331,1.08798 -1.08087,0.86302 5.7802,-3.31735 11.5604,-6.63469 17.34059,-9.95203 -0.43701,0.46197 -0.49928,0.26567 -0.16872,0.59436 3.84702,1.72227 8.09262,2.00737 12.24102,2.28282 4.81962,0.0408 9.53893,1.025 14.17719,2.25083 4.35866,1.62283 8.8348,2.90344 13.2123,4.45402 2.91474,0.98522 0.64262,0.24667 3.41057,1.07323 0.23036,0.0688 1.67021,0.46502 2.00516,0.7324 0.20939,0.16715 0.69919,0.49224 0.47926,0.64526 -6.0816,4.23129 -12.46113,8.0174 -18.69169,12.0261 -3.4832,0.0373 -6.96663,-0.0113 -10.44976,-0.0396 -5.80923,0.18774 -11.60998,0.73059 -17.42719,0.96496 -6.27307,0.22789 -12.5493,0.34389 -18.82591,0.40777 -4.23694,0.0279 -8.47393,0.0233 -12.71092,0.0306 -3.51402,-0.0947 -7.05696,0.25579 -10.54207,-0.25296 -3.0203,-0.56952 -6.07069,-0.89345 -9.13717,-1.05704 -2.9744,0.24155 -5.44214,-0.77205 -7.97483,-2.20314 -11.99169,3.61834 -12.94521,3.43098 -15.55057,1.98077 -3.08427,-1.78027 -6.92979,2.96438 -10.14407,1.42893 -1.93146,-1.54193 0.14797,-17.83079 -1.09673,-20.1209 -0.21889,-0.40274 2.05175,1.6238 1.91691,1.1857 1.92783,-7.80068 14.80022,-10.01011 19.90632,-12.81126 0.51128,-0.28048 2.9385,-0.50158 3.73404,-0.74219 3.00389,-0.86878 6.34514,-0.34239 9.02982,-2.07071 -5.71238,3.24583 -11.40165,6.5327 -17.13716,9.7375 -0.34632,0.19351 0.66829,-0.43383 0.96268,-0.69975 0.88958,-0.80355 1.54932,-1.72508 1.09734,-2.89005 -1.6992,-2.38362 -16.78337,10.0459 -19.30043,8.91659 -9.27178,-5.76641 23.96362,-27.091583 30.14999,-27.126767 3.04589,-0.113505 6.00453,-0.08361 8.98994,0.530369 2.43459,1.262408 4.70512,2.943088 6.92276,4.575018 0.7782,0.76547 1.03107,0.82692 1.3551,1.94524 0.28892,0.99717 0.1164,2.66124 -0.89463,3.28147 -6.30312,3.86668 -12.7566,7.48275 -19.1349,11.22412 -7.30632,1.44295 -19.84548,11.62058 13.80819,-8.76727 0.13449,-0.0815 -0.27608,-0.19388 -0.3228,-0.34404 -0.0246,-0.079 0.10372,-0.12896 0.15558,-0.19345 2.18983,1.28483 4.73254,1.6063 7.21269,1.85802 2.55682,0.53861 4.74967,2.23432 3.57634,4.99476 -51.53963,29.99302 -3.05424,-0.89576 -3.66514,-0.55401 -32.80234,18.35037 -16.4884,12.83157 0.19943,2.76905 0.12577,-0.0758 2.53984,1.49305 2.49768,1.35237 -0.039,-0.13028 -7.92087,-2.38944 -5.72059,-0.9056 3.62641,0.57325 10.16233,0.69738 13.73264,1.55116 3.12277,0.72365 6.32384,0.89228 9.51595,0.97087 2.85877,0.0407 5.71797,0.0196 8.57689,0.0106 0.33306,0.0682 1.90376,0.32762 2.30328,0.60807 0.46043,0.32322 1.52546,2.27347 1.05888,2.57845 -16.16455,10.56573 -12.19425,10.24079 -20.57346,10.53041 -3.27493,0.15045 -6.5538,0.13857 -9.83127,0.14898 -3.2135,-0.0604 -6.4315,0.16699 -9.62188,-0.25869 l 17.22335,-12.25772 0,0 c 3.16123,0.18906 6.32912,0.0731 9.49471,0.0828 3.2588,-0.0209 6.52848,-0.0256 9.77193,-0.37726 8.09557,-1.51221 -2.77582,0.38148 -16.36051,9.91762 -1.58482,1.11251 3.12493,1.80712 0.55025,1.54861 -0.3851,-0.0387 -0.77311,-0.0388 -1.15967,-0.0582 -2.874,0.006 -5.74938,0.0246 -8.62182,-0.0869 -3.27083,-0.17354 -6.53409,-0.51663 -9.70668,-1.37357 -3.77631,-0.99719 -7.65719,-1.79214 -11.29047,-3.19942 -0.4067,-0.46025 -0.92194,-0.84377 -1.2201,-1.38074 -0.23836,-0.42927 -0.74725,-1.15533 -0.34211,-1.43272 6.04419,-4.1384 -12.45133,10.91016 -6.66162,6.42265 5.24041,-4.06176 -0.27575,-7.78774 5.46594,-11.10329 22.52131,-13.00494 35.42337,-8.75961 9.68239,6.5122 1.19623,-0.19186 -4.68156,-4.08307 -3.6516,-3.89717 0.88423,0.15964 -3.08222,-1.54208 -2.52463,-0.88344 -2.81675,-0.4472 -5.65626,-1.07394 -7.99158,-2.81118 -7.2597,-8.67655 13.44964,-11.58368 20.96614,-15.31099 -5.69871,3.3634 -11.23686,6.16078 -16.91757,9.5545 -1.16425,0.69555 1.65456,-0.17489 1.80806,-0.36692 0.23307,-0.29159 -0.64813,-1.06659 -0.6433,-0.91668 -2.02826,-1.39554 -3.98393,-3.16311 -6.39354,-3.79625 -2.87059,-0.42196 -5.79592,-0.29257 -8.67474,0.0114 -7.67239,1.89322 2.1012,-0.429 16.77049,-9.91614 0.0434,-0.0281 -1.11209,-0.95459 -1.28804,-1.15345 -0.30906,-0.34929 2.4316,2.2379 1.19911,0.72098 3.031,1.27562 6.18789,2.53668 8.05324,5.42303 0.48839,1.04787 0.82174,1.46005 0.81446,2.66088 -0.052,8.58146 -26.56369,12.86786 -20.90807,14.7883 -3.03353,0.78987 -6.21602,0.85794 -9.2232,1.80011 -0.72721,0.15736 -1.81485,0.3657 -2.53464,0.61928 -0.34964,0.12317 -1.33692,0.63659 -1.01815,0.44737 32.40437,-19.23464 22.83145,-10.60788 15.8841,-9.85848 -0.17859,-0.0889 -0.47966,-0.45832 -0.53578,-0.26685 -0.14168,0.48342 5.82383,3.61603 6.57293,3.99079 3.25266,1.5494 8.55057,4.71414 11.68874,6.4827 2.65811,1.47418 3.25668,1.38312 5.7446,3.14005 2.42219,1.13195 4.77977,1.57436 7.47063,1.49382 3.0666,0.25022 6.101,0.71457 9.14699,1.13787 3.46021,0.18567 6.92787,0.0402 10.39169,0.0997 4.20807,0.0147 8.41622,0.0232 12.62429,0.0129 6.20858,-0.0183 12.41888,-0.0767 18.62182,-0.36351 5.89912,-0.31766 11.78073,-0.99895 17.68941,-1.02312 3.4571,0.002 6.9528,0.14178 10.38128,-0.36169 -17.53219,12.28253 -10.78552,13.9648 -21.65866,10.12864 -4.34556,-1.46325 -8.67484,-2.97924 -13.05667,-4.33069 -4.59753,-1.06177 -9.23391,-1.89969 -13.97014,-1.97469 -4.65834,-0.42414 -9.66087,-0.7873 -13.47459,-3.77237 -0.34152,-0.55334 -0.81108,-1.04581 -1.02455,-1.66001 -0.14553,-0.41874 -0.37871,-1.07699 -0.0146,-1.32987 9.09961,-6.31966 14.24189,-12.14841 23.89654,-12.44807 4.83007,-0.0317 9.70741,0.0221 14.48536,-0.7652 7.59697,-3.32259 0.0899,-0.13174 -15.67485,11.08868 -0.0925,0.0658 0.3707,0.2389 0.25849,0.22172 -1.02088,-0.1563 -1.90655,-0.92342 -3.02004,-0.69208 -0.87738,-0.10811 -1.76186,-0.14764 -2.64279,-0.22146 -7.27423,-0.3359 -14.5648,-0.0734 -21.84127,-0.40391 -5.89016,-0.28023 -12.04876,-0.0116 -17.44618,-2.67051 -3.14516,-1.73029 -6.58357,-5.02884 -9.4749,-7.15947 -7.49217,-8.78984 13.27935,-13.34381 21.6226,-13.67587 5.11787,0.0388 10.23624,0.0769 15.35402,0.005 3.0628,-0.0741 6.37292,0.0901 9.15823,-1.37813 -5.73586,3.38864 -11.49289,6.74172 -17.20759,10.16591 -0.26637,0.15961 0.59082,-0.20611 0.85577,-0.36805 0.97007,-0.59291 1.44459,-1.78113 1.20896,-2.84894 -1.37092,-2.74516 -3.63903,-3.44408 -6.63331,-3.20468 -5.33719,0.0243 -10.67682,0.10365 -16.00323,0.47281 -6.63175,0.49836 -13.21859,1.37034 -19.84002,1.96696 -5.07828,0.42078 -20.37532,39.86675 -25.41136,40.68648 -4.20666,0.968 2.81759,-53.602983 -0.89893,-51.375903 l 15.59117,0.413643 z"
       inkscape:connector-curvature="0"
       sodipodi:nodetypes="ccccccccccsccccccccccccccssccccccccccscsccsscccccssccccccscccccccscccccccscccccsssscccccsccccccccscccscccccccccccccccccscccsccccccccsscccccccc" />
  </g>
</svg>
